

[img]http://img27.imageshack.us/img27/2394/ioluil.jpg[/img]




Genre : Comedy / Drama

Plot : An anthology of five short films exploring the impact of breast cancer on people's lives.[/quote]



Complete name : Five.2011.HDTV.XViD.OCW.avi 
Format : AVI 
Format/Info : Audio Video Interleave 
File size : 686 MiB 
Duration : 1h 30mn 
Overall bit rate : 1 065 Kbps 
Writing library : MPlayer 

Video 
ID : 0 
Format : MPEG-4 Visual 
Format profile : Advanced Simple@L5 
Format settings, BVOP : 2 
Format settings, QPel : No 
Format settings, GMC : No warppoints 
Format settings, Matrix : Default (H.263) 
Codec ID : XVID 
Codec ID/Hint : XviD 
Duration : 1h 30mn 
Bit rate : 797 Kbps 
Width : 720 pixels 
Height : 304 pixels 
Display aspect ratio : 2.35:1 
Frame rate : 23.976 fps 
Color space : YUV 
Chroma subsampling : 4:2:0 
Bit depth : 8 bits 
Scan type : Progressive 
Compression mode : Lossy 
Bits/(Pixel*Frame) : 0.152 
Stream size : 514 MiB (75%) 
Writing library : XviD 63 

Audio 
ID : 1 
Format : MPEG Audio 
Format version : Version 1 
Format profile : Layer 3 
Mode : Joint stereo 
Mode extension : MS Stereo 
Codec ID : 55 
Codec ID/Hint : MP3 
Duration : 1h 30mn 
Bit rate mode : Constant 
Bit rate : 256 Kbps 
Channel(s) : 2 channels 
Sampling rate : 44.1 KHz 
Compression mode : Lossy 
Delay relative to video : 42ms 
Stream size : 165 MiB (24%) 
Alignment : Aligned on interleaves 
Interleave, duration : 26 ms (0.63 video frame) 
Interleave, preload duration : 809 ms 
Writing library : LAME3.98.4
 
http://www.imdb.com/title/tt1877740/



[img]http://img163.imageshack.us/img163/113/vlcsnap2011102423h19m34.png[/img]
[img]http://img560.imageshack.us/img560/9290/vlcsnap2011102423h19m15.png[/img]
[img]http://img94.imageshack.us/img94/9148/vlcsnap2011102423h18m55.png[/img]
[img]http://img23.imageshack.us/img23/2756/vlcsnap2011102423h20m24.png[/img]
[img]http://img12.imageshack.us/img12/8568/vlcsnap2011102423h20m05.png[/img]
